<?xml version="1.0" encoding="UTF-8"?>
<svg width="1200pt" height="1200pt" version="1.1" viewBox="0 0 1200 1200" xmlns="http://www.w3.org/2000/svg">
 <path d="m681.89 761.78 2.9336 1.5078v62.52c0 4.9688 4.0312 9 9 9s9-4.0312 9-9v-68.027c0-3.3828-1.8906-6.4766-4.8984-8.0117l-7.832-4.0078c-4.4219-2.2617-9.8516-0.51562-12.109 3.9102-2.2656 4.4297-0.51562 9.8477 3.9062 12.109z"/>
 <path d="m632.32 825.8v-19.645c0-4.9688-4.0312-9-9-9s-9 4.0312-9 9v19.645c0 4.9688 4.0312 9 9 9s9-4.0312 9-9z"/>
 <path d="m825.8 684.83h-63.273c-2.6914-2.3008-6.6133-2.8945-9.9531-1.1836-4.4219 2.2617-6.1797 7.6797-3.9219 12.109l1.1094 2.168c1.543 3.0117 4.6367 4.9023 8.0156 4.9023h68.027c4.9688 0 9-4.0312 9-9 0-4.9648-4.0352-8.9961-9.0039-8.9961z"/>
 <path d="m374.2 515.17h62.52l10.488 20.52c1.543 3.0117 4.6367 4.9023 8.0156 4.9023h30.07v27.859h-111.09c-4.9688 0-9 4.0312-9 9s4.0312 9 9 9h111.09v27.859h-111.09c-4.9688 0-9 4.0312-9 9s4.0312 9 9 9h111.09v27.094h-30.07c-3.3828 0-6.4766 1.8906-8.0156 4.9023l-10.488 20.52h-62.52c-4.9688 0-9 4.0312-9 9s4.0312 9 9 9h68.027c3.3828 0 6.4766-1.8906 8.0156-4.9023l10.488-20.52h24.562v16.305c0 11.262 9.1641 20.426 20.426 20.426h16.875v25.133l-20.52 10.488c-3.0117 1.543-4.9023 4.6367-4.9023 8.0156v23.371c0 4.9688 4.0312 9 9 9s9-4.0312 9-9v-17.863l20.52-10.488c3.0117-1.543 4.9023-4.6367 4.9023-8.0156v-30.641h27.859v17.504c0 4.9688 4.0312 9 9 9s9-4.0312 9-9v-17.504l33.047 0.007813c4.9688 0 9-4.0312 9-9s-4.0312-9-9-9h-113.79c-1.3359 0-2.4258-1.0898-2.4258-2.4258l0.003907-190.51c0-1.3359 1.0898-2.4258 2.4258-2.4258h188.57c1.3359 0 2.4258 1.0898 2.4258 2.4258v120.12c0 4.9688 4.0312 9 9 9 1.293 0 2.5078-0.29297 3.6172-0.78516h16.844c4.9688 0 9-4.0312 9-9s-4.0312-9-9-9l-11.465 0.003906v-27.859h52.301c4.9688 0 9-4.0312 9-9s-4.0312-9-9-9l-52.301-0.003906v-27.094h30.07c3.3828 0 6.4766-1.8906 8.0156-4.9023l10.488-20.52h62.52c4.9688 0 9-4.0312 9-9s-4.0312-9-9-9h-68.027c-3.3828 0-6.4766 1.8906-8.0156 4.9023l-10.488 20.52h-24.562v-19.383c0-11.262-9.1641-20.426-20.426-20.426h-16.875l0.003906-22.051 20.52-10.488c3.0117-1.543 4.9023-4.6367 4.9023-8.0156v-68.027c0-4.9688-4.0312-9-9-9s-9 4.0312-9 9v62.52l-20.52 10.488c-3.0117 1.543-4.9023 4.6367-4.9023 8.0156v27.562h-27.859v-108.59c0-4.9688-4.0312-9-9-9s-9 4.0312-9 9v108.59h-27.859v-108.59c0-4.9688-4.0312-9-9-9s-9 4.0312-9 9v108.59h-27.094v-27.562c0-3.3828-1.8906-6.4766-4.9023-8.0156l-20.52-10.488v-62.52c0-4.9688-4.0312-9-9-9s-9 4.0312-9 9v68.027c0 3.3828 1.8906 6.4766 4.9023 8.0156l20.52 10.488v22.055h-16.875c-11.262 0-20.426 9.1641-20.426 20.426v19.383h-24.562l-10.488-20.52c-1.543-3.0117-4.6367-4.9023-8.0156-4.9023h-68.027c-4.9688 0-9 4.0312-9 9-0.003906 4.9648 4.0273 8.9961 8.9961 8.9961z"/>
 <path d="m665.07 537.35c-4.9688 0-9 4.0312-9 9v107.3c0 1.3359-1.0898 2.4258-2.4258 2.4258h-107.3c-4.9688 0-9 4.0312-9 9s4.0312 9 9 9h107.3c11.262 0 20.426-9.1641 20.426-20.426v-107.3c0-4.9688-4.0312-9-9-9z"/>
 <path d="m1048.3 283.71c-17.953-23.098-66.867-16.73-145.29 18.719-79.512-81.312-187.63-127.11-303.34-127.11-95.051 0-185.05 30.902-260.29 89.367-89.566 69.605-146.67 169.92-160.78 282.46-12.059 96.145 8.5859 191.34 58.219 272.89-53.816 67.348-72.016 113.21-54.074 136.3 7.0977 9.1211 19.141 13.348 35.234 13.348 28.598-0.003906 70.004-13.406 118.94-36.227 74.086 58.703 165.99 91.215 263.33 91.215 95.051 0 185.05-30.902 260.29-89.367 89.566-69.605 146.67-169.92 160.78-282.46 0.41016-3.2852 0.65625-6.5586 0.99219-9.8398 1.4062-1.5859 2.332-3.6211 2.332-5.9102 0-1.6211-0.54297-3.0586-1.293-4.3711 5.5781-71.164-6.6562-141.32-35.234-205.3 53.418-65.285 79.883-118.36 60.18-143.72zm-171.63 92.855c-15.996 0-29.012-13.016-29.012-29.004 0-15.996 13.016-29.012 29.012-29.012 15.988 0 29.004 13.016 29.004 29.012 0 15.988-13.012 29.004-29.004 29.004zm-526.23-97.668c72.043-55.984 158.23-85.582 249.24-85.582 103.78 0 201.14 38.52 275.63 107.37-25.277 0.74219-45.645 21.418-45.645 46.871 0 22.836 16.387 41.879 38.012 46.094v83.461c0 4.9688 4.0312 9 9 9s9-4.0312 9-9v-83.461c19.781-3.8594 34.957-20.188 37.43-40.422 17.281 22.617 31.941 46.664 43.969 71.766-62.039 73.418-162.71 169.43-292.86 270.56-130.13 101.13-248.02 174.99-334.48 216.98-11.887-9.9453-23.246-20.613-34.047-31.984 4.4375 1.3906 9.0625 2.3555 13.953 2.3555 25.918 0 47.004-21.086 47.004-47.012 0-22.832-16.383-41.879-38.004-46.094v-152.7c0-4.9688-4.0312-9-9-9h-125.45c-1.6133-24.02-1.0312-48.344 1.6758-72.75h123.4c4.9688 0 9-4.0312 9-9l-0.003907-152.7c21.621-4.2148 38.004-23.262 38.004-46.094 0-24.172-18.406-43.906-41.895-46.492 8.3594-7.6836 16.996-15.125 26.062-22.172zm-154.6 367.2h114.81v143.7c-21.625 4.2148-38.012 23.258-38.012 46.094 0 2.0664 0.35156 4.0352 0.60938 6.0273-43.133-58.184-69.5-125.38-77.406-195.82zm94.801 189.79c0-15.988 13.016-29.004 29.012-29.004 15.988 0 29.004 13.016 29.004 29.004 0 15.996-13.016 29.012-29.004 29.012-16 0-29.012-13.012-29.012-29.012zm28.629-459.32c-15.996 0-29.012-13.016-29.012-29.004 0-15.996 13.016-29.012 29.012-29.012 15.988 0 29.004 13.016 29.004 29.012 0 15.988-13.012 29.004-29.004 29.004zm-9 17.09v143.7h-111.99c10.254-66.055 36.074-127.35 75.113-179.77 3.9805 18.215 18.52 32.492 36.879 36.074zm-113.3 551.64c-4.2188-5.4297-12.578-29.297 50.156-109.18 5.5703 8.2969 11.34 16.492 17.531 24.461 17.281 22.238 36.539 42.32 57.273 60.367-67.582 30.91-112.85 39.914-124.96 24.352zm687.2-138.41c15.996 0 29.012 13.016 29.012 29.004 0 15.996-13.016 29.012-29.012 29.012-15.988 0-29.004-13.016-29.004-29.012 0-15.992 13.012-29.004 29.004-29.004zm46.969 29.367c0-0.125 0.039062-0.24219 0.039062-0.36719 0-22.836-16.387-41.879-38.012-46.094v-143.7h110.76c-0.17188 1.5039-0.26562 3.0039-0.45312 4.5078-8.5352 68.043-33.516 131.39-72.332 185.65zm70.719-298.91h-71.973c-4.9688 0-9 4.0312-9 9s4.0312 9 9 9h74.355c2.6016 23.969 3.1133 48.285 1.3867 72.75h-121.46c-4.9688 0-9 4.0312-9 9v152.7c-21.621 4.2148-38.004 23.262-38.004 46.094 0 25.922 21.086 47.012 47.004 47.012 3.0273 0 5.9688-0.34375 8.8398-0.89453-13.453 13.918-27.953 27.004-43.508 39.09-72.043 55.984-158.23 85.582-249.24 85.582-90.168 0-175.43-29.168-245.13-81.945 96.727-47.824 218.73-128.39 330.14-214.97 111.41-86.574 219.64-184.91 289.88-266.83 12.734 30.301 21.695 61.957 26.707 94.418zm-22.133-127.66c-12.363-24.547-27.195-48.078-44.441-70.27-6.1992-7.9766-12.715-15.598-19.383-23.047 73.746-32.551 109.47-32.832 118.2-21.621 12.074 15.543-7.7969 57.141-54.371 114.94z"/>
 <path d="m424.21 474.83c25.918 0 47.004-21.086 47.004-47.004 0-22.84-16.383-41.883-38.004-46.102v-98.016h51.852c2.4062 23.68 22.227 42.289 46.531 42.289 25.918 0 47.004-21.086 47.004-47.012 0-25.918-21.086-47.004-47.004-47.004-21.277 0-39.094 14.301-44.863 33.727h-62.52c-4.9688 0-9 4.0312-9 9v107.02c-21.625 4.2148-38.012 23.262-38.012 46.102 0.003907 25.914 21.09 47.004 47.012 47.004zm107.38-224.85c15.988 0 29.004 13.016 29.004 29.004 0 15.996-13.016 29.012-29.004 29.012-15.996 0-29.012-13.016-29.012-29.012 0.003906-15.992 13.02-29.004 29.012-29.004zm-107.38 148.84c15.988 0 29.004 13.016 29.004 29.012 0 15.988-13.016 29.004-29.004 29.004-15.996 0-29.012-13.016-29.012-29.004 0.003907-16 13.016-29.012 29.012-29.012z"/>
 <path d="m664.41 326c24.305 0 44.125-18.605 46.531-42.289h51.859v98.016c-21.625 4.2148-38.012 23.262-38.012 46.102 0 25.918 21.086 47.004 47.012 47.004 25.918 0 47.004-21.086 47.004-47.004 0-22.84-16.383-41.883-38.004-46.102v-107.02c0-4.9688-4.0312-9-9-9h-62.523c-5.7734-19.426-23.586-33.727-44.863-33.727-25.918 0-47.004 21.086-47.004 47.004-0.003906 25.926 21.082 47.012 47 47.012zm136.39 101.83c0 15.988-13.016 29.004-29.004 29.004-15.996 0-29.012-13.016-29.012-29.004 0-15.996 13.016-29.012 29.012-29.012 15.992 0.003906 29.004 13.016 29.004 29.012zm-136.39-177.84c15.996 0 29.012 13.016 29.012 29.004 0 15.996-13.016 29.012-29.012 29.012-15.988 0-29.004-13.016-29.004-29.012 0-15.992 13.012-29.004 29.004-29.004z"/>
 <path d="m779.29 732.62c-25.918 0-47.004 21.086-47.004 47.012 0 22.832 16.383 41.879 38.004 46.094v98.016h-51.859c-2.4062-23.68-22.227-42.289-46.527-42.289-25.922 0-47.012 21.086-47.012 47.012 0 25.918 21.086 47.004 47.012 47.004 21.273 0 39.086-14.301 44.859-33.727h62.523c4.9688 0 9-4.0312 9-9v-107.02c21.625-4.2148 38.012-23.258 38.012-46.094 0-25.926-21.09-47.012-47.008-47.012zm-107.39 224.85c-15.996 0-29.012-13.016-29.012-29.004 0-15.996 13.016-29.012 29.012-29.012 15.988 0 29.004 13.016 29.004 29.012 0 15.988-13.016 29.004-29.004 29.004zm107.39-148.83c-15.988 0-29.004-13.016-29.004-29.004 0-15.996 13.016-29.012 29.004-29.012 15.996 0 29.012 13.016 29.012 29.012-0.003907 15.988-13.016 29.004-29.012 29.004z"/>
 <path d="m424.59 732.62c-25.918 0-47.004 21.086-47.004 47.012 0 22.832 16.383 41.879 38.004 46.094v5.1523c0 4.9688 4.0312 9 9 9s9-4.0312 9-9v-5.1523c21.625-4.2148 38.012-23.258 38.012-46.094 0-25.926-21.086-47.012-47.012-47.012zm0 76.016c-15.988 0-29.004-13.016-29.004-29.004 0-15.996 13.016-29.012 29.004-29.012 15.996 0 29.012 13.016 29.012 29.012 0 15.988-13.016 29.004-29.012 29.004z"/>
 <path d="m531.97 881.45c-24.297 0-44.117 18.605-46.527 42.289h-51.859v-3.7227c0-4.9688-4.0312-9-9-9s-9 4.0312-9 9v12.723c0 4.9688 4.0312 9 9 9h62.523c5.7734 19.426 23.586 33.727 44.859 33.727 25.922 0 47.012-21.086 47.012-47.004 0.003906-25.922-21.086-47.012-47.008-47.012zm0 76.016c-15.988 0-29.004-13.016-29.004-29.004 0-15.996 13.016-29.012 29.004-29.012 15.996 0 29.012 13.016 29.012 29.012 0 15.988-13.016 29.004-29.012 29.004z"/>
</svg>
